<?xml version="1.0" encoding="utf-8"?>
<!-- Generator: Adobe Illustrator 21.1.0, SVG Export Plug-In . SVG Version: 6.00 Build 0)  -->
<svg version="1.1" id="Layer_1" xmlns="http://www.w3.org/2000/svg" xmlns:xlink="http://www.w3.org/1999/xlink" x="0px" y="0px"
	 viewBox="0 0 800 800" style="enable-background:new 0 0 800 800;" xml:space="preserve">
<style type="text/css">
	.st0{fill:#009FCF;}
	.st1{fill:#FFFFFF;}
	.st2{fill-rule:evenodd;clip-rule:evenodd;fill:#009FCF;}
</style>
<g>
	<path class="st0" d="M507.2,273.6c0,24.2-19.6,43.7-43.7,43.7c-8.1,0-15.8-2.2-22.3-6.1c-3.1-1.9-21.5,2.8-21.5,2.8
		s7.2-16,5.1-19.9c-3.3-6.1-5.1-13.1-5.1-20.5c0-24.2,19.6-43.7,43.8-43.7C487.6,229.9,507.2,249.5,507.2,273.6"/>
	<path class="st1" d="M435.2,259.8c0-1.9,1.3-3.6,3.6-3.6h11.9c2.1,0,3.1,1.6,3.1,3.2c0,1.6-1,3.2-3.1,3.2h-8.6v6.8h7.2
		c2.2,0,3.4,1.6,3.4,3.2c0,1.6-1.1,3.3-3.4,3.3h-7.2V286c0,2.3-1.5,3.6-3.5,3.6c-2,0-3.5-1.3-3.5-3.6V259.8z"/>
	<path class="st1" d="M458.2,259.5c0.3-1.7,2.1-3.6,4.6-3.6c2.3,0,4.2,1.7,4.7,3.4l5.5,18.5h0.1l5.5-18.5c0.5-1.7,2.3-3.4,4.7-3.4
		c2.5,0,4.3,1.9,4.6,3.6l4.3,26c0,0.3,0,0.6,0,0.8c0,2.1-1.5,3.4-3.4,3.4c-2.4,0-3.3-1.1-3.6-3.3l-2.8-19h-0.1l-5.6,19.6
		c-0.3,1.1-1.2,2.7-3.7,2.7c-2.5,0-3.4-1.6-3.7-2.7l-5.6-19.6h-0.1l-2.8,19c-0.3,2.2-1.3,3.3-3.6,3.3c-1.9,0-3.4-1.3-3.4-3.4
		c0-0.2,0-0.5,0-0.8L458.2,259.5z"/>
	<path class="st0" d="M426.8,482.7h-2.7c-2.2,0-3.2-1.6-3.2-3.2c0-1.6,1.2-3.2,3.2-3.2h6.6c2,0,3.1,1.4,3.1,3.3V506
		c0,2.3-1.5,3.6-3.5,3.6c-2,0-3.5-1.3-3.5-3.6V482.7z"/>
	<path class="st0" d="M434.8,492.8c0-7.6,2.9-17.1,12.3-17.1c9.4,0,12.3,9.5,12.3,17.1c0,7.6-2.9,17.1-12.3,17.1
		C437.7,509.9,434.8,500.4,434.8,492.8 M452.1,492.8c0-3.5-0.3-10.8-5.1-10.8c-4.7,0-5.1,7.2-5.1,10.8c0,3.3,0.3,10.8,5.1,10.8
		C451.8,503.6,452.1,496.1,452.1,492.8"/>
	<path class="st0" d="M477.3,503.2c2,0,3.6,0.9,3.6,3.1c0,2.1-1.6,3.1-3.3,3.1h-15.5c-2,0-3.6-0.9-3.6-3.1c0-1,0.6-1.8,1.1-2.4
		c3.9-4.6,8-8.8,11.6-13.9c0.8-1.2,1.6-2.6,1.6-4.3c0-1.9-1.4-3.6-3.3-3.6c-5.3,0-2.8,7.5-7.2,7.5c-2.2,0-3.4-1.6-3.4-3.4
		c0-5.8,5.2-10.5,10.9-10.5c5.7,0,10.3,3.8,10.3,9.7c0,6.5-7.2,12.9-11.1,17.8H477.3z"/>
	<path class="st0" d="M485.8,502.6c2,0,3.6,1.6,3.6,3.6s-1.6,3.6-3.6,3.6c-2,0-3.6-1.6-3.6-3.6S483.8,502.6,485.8,502.6"/>
	<path class="st0" d="M499.7,487.6c1.1-0.2,2.3-0.5,3.5-0.5c5.6,0,9.6,4.5,9.6,9.9c0,7.8-4.3,12.9-12.3,12.9
		c-3.3,0-10.2-2.1-10.2-6.2c0-1.7,1.4-3.2,3.2-3.2c1.9,0,4.1,3,7.2,3c3.3,0,4.9-3.2,4.9-6.1c0-2.8-1.6-4.7-4.5-4.7
		c-2.7,0-3.1,1.5-5.5,1.5c-1.8,0-2.7-1.4-2.7-2.2c0-0.6,0.1-1.1,0.1-1.6l1.2-9.8c0.5-3.6,1.4-4.4,3.6-4.4H509c2.1,0,3.4,1.3,3.4,2.9
		c0,3.2-2.4,3.5-3.2,3.5h-8.7L499.7,487.6z"/>
	<path class="st0" d="M518.6,507.6c-0.6-0.1-1.3-0.7-1.3-1.6c0-0.8,0.6-1.4,1.2-1.6l6.4-1.9v0l-6.4-1.9c-0.6-0.2-1.2-0.8-1.2-1.6
		c0-0.9,0.7-1.5,1.3-1.6l9.1-1.5c0.1,0,0.2,0,0.3,0c0.7,0,1.2,0.5,1.2,1.2c0,0.8-0.4,1.2-1.1,1.3l-6.6,1v0l6.8,1.9
		c0.4,0.1,0.9,0.4,0.9,1.3c0,0.9-0.6,1.2-0.9,1.3l-6.8,2v0l6.6,1c0.8,0.1,1.1,0.4,1.1,1.3c0,0.6-0.5,1.2-1.2,1.2c-0.1,0-0.2,0-0.3,0
		L518.6,507.6z"/>
	<path class="st0" d="M518.6,495.9c-0.8,0-1.3-0.5-1.3-1.2c0-0.7,0.5-1.2,1.3-1.2h3.4v-5.1h-3.4c-0.8,0-1.3-0.5-1.3-1.2
		c0-0.7,0.5-1.2,1.3-1.2h9.2c0.8,0,1.3,0.5,1.3,1.2c0,0.7-0.5,1.2-1.3,1.2h-3.5v5.1h3.5c0.8,0,1.3,0.5,1.3,1.2
		c0,0.7-0.5,1.2-1.3,1.2H518.6z"/>
	<path class="st0" d="M526.8,478.6c0-0.7,0.4-1.2,1.1-1.2c0.6,0,1.1,0.6,1.1,1.2v6.4c0,0.9-0.5,1.4-1.2,1.4c-0.3,0-0.7-0.1-0.9-0.3
		l-7.3-5.2v4.3c0,0.6-0.4,1.1-1,1.1c-0.6,0-1.1-0.5-1.1-1.1v-5.9c0-0.9,0.6-1.4,1.2-1.4c0.4,0,0.8,0.1,1,0.4l7.2,5.2V478.6z"/>
	<path d="M191.2,454.4c0,7.2-4.5,12-10.8,12c-6,0-9.4-3.3-10.8-9c-4,6.6-12.4,9.9-19.7,9.9c-21.7,0-35.4-20.2-35.4-40.5
		c0-20.9,11.5-42.6,34.7-42.6c7.5,0,14.8,2.5,20.5,7.5v-29.3c0-7.2,4.5-12,10.8-12c6.3,0,10.8,4.8,10.8,12V454.4z M152.8,403.8
		c-11.2,0-16.7,11.8-16.7,22c0,10,5.5,21.7,16.7,21.7c11.8,0,16.9-12,16.9-22.4C169.6,414.6,164.3,403.8,152.8,403.8"/>
	<path d="M214.2,432.8c1.5,10.6,10.3,15.5,20.3,15.5c11.1,0,18.7-8.7,24.4-8.7c4.6,0,8.8,4.6,8.8,9.3c0,9.3-19.1,18.2-35.1,18.2
		c-24.2,0-40.3-17.6-40.3-41.4c0-21.8,15.8-41.7,38.6-41.7c23.3,0,38.7,21.2,38.7,39.2c0,6.4-2.8,9.6-9.4,9.6H214.2z M248,418.5
		c-1.2-9.4-7.2-16.4-17.2-16.4c-9.6,0-16,7.3-17,16.4H248z"/>
	<path d="M270.4,362.3c0-7.2,4.5-12,10.8-12c6.3,0,10.8,4.8,10.8,12v92.1c0,7.2-4.5,12-10.8,12c-6.3,0-10.8-4.8-10.8-12V362.3z"/>
	<path d="M437.8,362.3c0-7.2,4.5-12,10.8-12s10.8,4.8,10.8,12v92.1c0,7.2-4.5,12-10.8,12s-10.8-4.8-10.8-12V362.3z"/>
	<path d="M538.4,452.3c0,5.5,0,14-10.3,14c-6.3,0-8.8-3.4-10.3-9.1c-5.5,6.6-12.3,10-20.5,10c-20.2,0-35.6-17.2-35.6-41.4
		c0-23.6,15.8-41.7,35.6-41.7c7.9,0,15.7,3.1,20.5,9.9c0.6-5.2,5.1-9,10.3-9c10.3,0,10.3,8.5,10.3,14V452.3z M500.3,447.5
		c11.2,0,16.6-11.4,16.6-21.7c0-10.3-5.2-22-16.6-22c-11.8,0-17,11.7-17,22C483.3,436.1,488.7,447.5,500.3,447.5"/>
	<path d="M617.1,459.1c0,25.9-16.9,38.9-41.4,38.9c-8.8,0-33.9-4.3-33.9-16.1c0-4,4.5-9.4,8.7-9.4c6.9,0,14.5,6.7,26.9,6.7
		c10.5,0,18.2-6.1,18.2-17V457h-0.3c-4.5,6.6-11.8,10.2-21.7,10.2c-22.6,0-33.2-19.9-33.2-41.2c0-21.7,13.7-41.8,35.4-41.8
		c7.3,0,15.7,3.3,19.7,9.9c1.3-5.7,4.8-9,10.8-9c6.3,0,10.8,4.8,10.8,12V459.1z M578.7,403.8c-11.2,0-16.7,11.7-16.7,21.7
		c0,11.5,5.5,22,16.7,22c11.5,0,16.9-10.8,16.9-21.2C595.6,415.8,590.5,403.8,578.7,403.8"/>
	<path d="M697,425.8c0,22.4-15.4,41.4-38.6,41.4c-23.2,0-38.6-19-38.6-41.4c0-21.8,15.8-41.7,38.6-41.7
		C681.2,384.1,697,404,697,425.8 M641.4,425.8c0,10.3,5.4,21.7,17,21.7c11.7,0,17-11.4,17-21.7c0-10.3-5.2-22-17-22
		C646.6,403.8,641.4,415.5,641.4,425.8"/>
	<path class="st2" d="M375.1,394c-1.6,0-2.8-1.3-2.8-2.8c0-1.6,1.3-2.8,2.8-2.8h30.7v-12h-30.7c-1.6,0-2.8-1.3-2.8-2.8
		c0-1.6,1.3-2.8,2.8-2.8h30.7v-12h-30.7c-1.6,0-2.8-1.3-2.8-2.8c0-1.6,1.3-2.8,2.8-2.8h30.7v-12h-30.7c-1.6,0-2.8-1.3-2.8-2.8
		c0-1.6,1.3-2.8,2.8-2.8h30.7v-12h-30.7c-1.6,0-2.8-1.3-2.8-2.8c0-1.6,1.3-2.8,2.8-2.8h30.4c-1.5-13.2-9.5-24.5-20.6-30.6v12.6
		c0,1.6-1.3,2.8-2.8,2.8c-1.6,0-2.8-1.3-2.8-2.8v-15.1c-1.7-0.6-3.5-1.1-5.3-1.5v16.6c0,1.6-1.3,2.8-2.8,2.8c-1.6,0-2.8-1.3-2.8-2.8
		v-17.4c-0.9-0.1-1.7-0.1-2.6-0.1c-0.9,0-1.8,0-2.6,0.1v17.4c0,1.6-1.3,2.8-2.8,2.8s-2.8-1.3-2.8-2.8v-16.6
		c-1.8,0.4-3.6,0.9-5.3,1.5v15.1c0,1.6-1.3,2.8-2.8,2.8c-1.6,0-2.8-1.3-2.8-2.8v-12.6c-11.2,6.1-19.1,17.4-20.6,30.6h30.4
		c1.6,0,2.8,1.3,2.8,2.8c0,1.6-1.3,2.8-2.8,2.8h-30.7v12h30.7c1.6,0,2.8,1.3,2.8,2.8c0,1.6-1.3,2.8-2.8,2.8h-30.7v12h30.7
		c1.6,0,2.8,1.3,2.8,2.8c0,1.6-1.3,2.8-2.8,2.8h-30.7v12h30.7c1.6,0,2.8,1.3,2.8,2.8c0,1.6-1.3,2.8-2.8,2.8h-30.7v12h30.7
		c1.6,0,2.8,1.3,2.8,2.8c0,1.6-1.3,2.8-2.8,2.8h-30.7v14c0,15.2,8.4,28.4,20.9,35.2v-26.7c0-1.6,1.3-2.8,2.8-2.8
		c1.6,0,2.8,1.3,2.8,2.8v29.2c1.7,0.6,3.5,1.1,5.3,1.5v-30.7c0-1.6,1.3-2.8,2.8-2.8s2.8,1.3,2.8,2.8V448c0.9,0.1,1.7,0.1,2.6,0.1
		c0.9,0,1.8,0,2.6-0.1v-31.5c0-1.6,1.3-2.8,2.8-2.8c1.6,0,2.8,1.3,2.8,2.8v30.7c1.8-0.4,3.6-0.9,5.3-1.5v-29.2
		c0-1.6,1.3-2.8,2.8-2.8c1.6,0,2.8,1.3,2.8,2.8v26.7c12.5-6.8,20.9-20,20.9-35.2v-14H375.1z"/>
	<path class="st0" d="M401.6,493.7h-27.9c0.1-0.5,0.1-0.9,0.1-1.4V473c31.6-4,56.1-31,56.1-63.7c0-4.5-3.6-8.1-8.1-8.1
		c-4.5,0-8.1,3.6-8.1,8.1c0,26.5-21.5,48-48,48c-26.5,0-48-21.5-48-48c0-4.5-3.6-8.1-8.1-8.1c-4.5,0-8.1,3.6-8.1,8.1
		c0,32.6,24.5,59.7,56.1,63.7v19.2c0,0.5,0,1,0.1,1.4h-27.1c-4.5,0-8.1,3.6-8.1,8.1c0,4.5,3.6,8.1,8.1,8.1h70.9
		c4.5,0,8.1-3.6,8.1-8.1C409.7,497.3,406,493.7,401.6,493.7"/>
</g>
</svg>
